Coordinates
version=1
nRows=6
nColumns=55
inDegrees=yes

Units are S.I. units (second, meters, Newtons, ...)
If the header above contains a line with 'inDegrees', this indicates whether rotational values are in degrees (yes) or radians (no).

endheader
time	pelvis_tilt	pelvis_list	pelvis_rotation	pelvis_tx	pelvis_ty	pelvis_tz	hip_flexion_r	hip_adduction_r	hip_rotation_r	knee_angle_r	knee_angle_r_beta	ankle_angle_r	subtalar_angle_r	mtp_angle_r	hip_flexion_l	hip_adduction_l	hip_rotation_l	knee_angle_l	knee_angle_l_beta	ankle_angle_l	subtalar_angle_l	mtp_angle_l	lumbar_extension	lumbar_bending	lumbar_rotation	torso_tx	torso_ty	torso_tz	arm_flex_r	arm_add_r	arm_rot_r	shoulder_rx	shoulder_ry	shoulder_rz	elbow_flex_r	pro_sup_r	wrist_flex_r	wrist_dev_r	arm_flex_l	arm_add_l	arm_rot_l	shoulder_lx	shoulder_ly	shoulder_lz	elbow_flex_l	pro_sup_l	wrist_flex_l	wrist_dev_l	neck_extension	neck_bending	neck_rotation	head_tx	head_ty	head_tz
      0.01000000	      6.29728187	     -0.39417685	     -3.66020206	      0.66834361	      1.04488245	     -0.19110733	    -11.92821025	    -11.23917621	     -6.28540553	     -4.46900903	     -0.07799892	      3.53160658	     14.17811043	     -0.22589600	    -10.00394420	    -11.34441800	    -10.82659115	     -2.39658601	     -0.04182832	      2.26684210	      7.50014761	      0.55203189	     -4.47495793	     -1.40295625	      4.43098041	      0.07709765	      0.01648505	     -0.00424086	    -11.32243342	     -8.84377420	     18.71657293	     -0.01736355	     -0.04319542	     -0.01305551	     23.70932977	      5.22915517	      2.75327918	     -5.13545067	     -5.74757543	    -11.27376134	     18.00651072	     -0.00901960	     -0.04808321	      0.01530336	     25.94359167	      8.39754180	      2.89623324	     -6.82772917	     23.07462314	     -0.97916225	     -5.28814741	      0.02119173	      0.02670894	     -0.00020739
      0.02000000	      6.29763287	     -0.39791522	     -3.65843957	      0.66846803	      1.04489913	     -0.19111599	    -11.92859326	    -11.23878375	     -6.28353824	     -4.46875606	     -0.07799451	      3.53279076	     14.17991235	     -0.22602974	    -10.00384748	    -11.34354888	    -10.82644358	     -2.39651126	     -0.04182701	      2.26707232	      7.50132447	      0.55205375	     -4.47546243	     -1.40523679	      4.42997218	      0.07711663	      0.01649384	     -0.00433170	    -11.32057559	     -8.84562450	     18.71738259	     -0.01736868	     -0.04317874	     -0.01302673	     23.70883432	      5.22941030	      2.75296947	     -5.13606344	     -5.74649216	    -11.27487380	     18.00726977	     -0.00899778	     -0.04810025	      0.01529971	     25.94251989	      8.39794650	      2.89576798	     -6.82830582	     23.07369151	     -0.97943726	     -5.28820790	      0.02121688	      0.02673355	     -0.00023663
      0.03000000	      6.29763287	     -0.39791522	     -3.65843957	      0.66846803	      1.04489913	     -0.19111599	    -11.92859326	    -11.23878375	     -6.28353824	     -4.46875606	     -0.07799451	      3.53279076	     14.17991235	     -0.22602974	    -10.00384748	    -11.34354888	    -10.82644358	     -2.39651126	     -0.04182701	      2.26707232	      7.50132447	      0.55205375	     -4.47546243	     -1.40523679	      4.42997218	      0.07711663	      0.01649384	     -0.00433170	    -11.32057559	     -8.84562450	     18.71738259	     -0.01736868	     -0.04317874	     -0.01302673	     23.70883432	      5.22941030	      2.75296947	     -5.13606344	     -5.74649216	    -11.27487380	     18.00726977	     -0.00899778	     -0.04810025	      0.01529971	     25.94251989	      8.39794650	      2.89576798	     -6.82830582	     23.07369151	     -0.97943726	     -5.28820790	      0.02121688	      0.02673355	     -0.00023663
      0.04000000	      6.29695844	     -0.39837571	     -3.65682754	      0.66863123	      1.04487457	     -0.19102405	    -11.92933202	    -11.23832574	     -6.28169689	     -4.46836970	     -0.07798776	      3.53400139	     14.18168597	     -0.22617222	    -10.00368463	    -11.34369806	    -10.82636567	     -2.39655922	     -0.04182785	      2.26738923	      7.50246201	      0.55205225	     -4.47667102	     -1.40565357	      4.42897134	      0.07716019	      0.01644749	     -0.00435059	    -11.31862059	     -8.84681331	     18.71833239	     -0.01736356	     -0.04318816	     -0.01300704	     23.70849516	      5.22970137	      2.75265278	     -5.13662312	     -5.74547609	    -11.27570480	     18.00811139	     -0.00897298	     -0.04813049	      0.01532527	     25.94144967	      8.39836786	      2.89529597	     -6.82887100	     23.07266838	     -0.97981457	     -5.28828543	      0.02124652	      0.02676950	     -0.00027365
      0.05000000	      6.29695844	     -0.39837571	     -3.65682754	      0.66863123	      1.04487457	     -0.19102405	    -11.92933202	    -11.23832574	     -6.28169689	     -4.46836970	     -0.07798776	      3.53400139	     14.18168597	     -0.22617222	    -10.00368463	    -11.34369806	    -10.82636567	     -2.39655922	     -0.04182785	      2.26738923	      7.50246201	      0.55205225	     -4.47667102	     -1.40565357	      4.42897134	      0.07716019	      0.01644749	     -0.00435059	    -11.31862059	     -8.84681331	     18.71833239	     -0.01736356	     -0.04318816	     -0.01300704	     23.70849516	      5.22970137	      2.75265278	     -5.13662312	     -5.74547609	    -11.27570480	     18.00811139	     -0.00897298	     -0.04813049	      0.01532527	     25.94144967	      8.39836786	      2.89529597	     -6.82887100	     23.07266838	     -0.97981457	     -5.28828543	      0.02124652	      0.02676950	     -0.00027365
      0.06000000	      6.29695844	     -0.39837571	     -3.65682754	      0.66863123	      1.04487457	     -0.19102405	    -11.92933202	    -11.23832574	     -6.28169689	     -4.46836970	     -0.07798776	      3.53400139	     14.18168597	     -0.22617222	    -10.00368463	    -11.34369806	    -10.82636567	     -2.39655922	     -0.04182785	      2.26738923	      7.50246201	      0.55205225	     -4.47667102	     -1.40565357	      4.42897134	      0.07716019	      0.01644749	     -0.00435059	    -11.31862059	     -8.84681331	     18.71833239	     -0.01736356	     -0.04318816	     -0.01300704	     23.70849516	      5.22970137	      2.75265278	     -5.13662312	     -5.74547609	    -11.27570480	     18.00811139	     -0.00897298	     -0.04813049	      0.01532527	     25.94144967	      8.39836786	      2.89529597	     -6.82887100	     23.07266838	     -0.97981457	     -5.28828543	      0.02124652	      0.02676950	     -0.00027365
